<?xml version="1.0" encoding="UTF-8" standalone="no"?>
<!-- Created with Inkscape (http://www.inkscape.org/) -->

<svg
   xmlns:dc="http://purl.org/dc/elements/1.1/"
   xmlns:cc="http://creativecommons.org/ns#"
   xmlns:rdf="http://www.w3.org/1999/02/22-rdf-syntax-ns#"
   xmlns:svg="http://www.w3.org/2000/svg"
   xmlns="http://www.w3.org/2000/svg"
   xmlns:xlink="http://www.w3.org/1999/xlink"
   xmlns:sodipodi="http://sodipodi.sourceforge.net/DTD/sodipodi-0.dtd"
   xmlns:inkscape="http://www.inkscape.org/namespaces/inkscape"
   width="210mm"
   height="297mm"
   viewBox="0 0 210 297"
   version="1.1"
   id="svg5"
   inkscape:version="0.92.3 (2405546, 2018-03-11)"
   sodipodi:docname="enkodér_new.svg">
  <metadata
     id="metadata3775">
    <rdf:RDF>
      <cc:Work
         rdf:about="">
        <dc:format>image/svg+xml</dc:format>
        <dc:type
           rdf:resource="http://purl.org/dc/dcmitype/StillImage" />
        <dc:title></dc:title>
      </cc:Work>
    </rdf:RDF>
  </metadata>
  <sodipodi:namedview
     id="namedview7"
     pagecolor="#ffffff"
     bordercolor="#666666"
     borderopacity="1.0"
     inkscape:pageshadow="2"
     inkscape:pageopacity="0.0"
     inkscape:pagecheckerboard="0"
     inkscape:document-units="mm"
     showgrid="false"
     inkscape:zoom="1.0381217"
     inkscape:cx="743.87739"
     inkscape:cy="885.71206"
     inkscape:window-width="1920"
     inkscape:window-height="1017"
     inkscape:window-x="-8"
     inkscape:window-y="-8"
     inkscape:window-maximized="1"
     inkscape:current-layer="g27637" />
  <defs
     id="defs2">
    <rect
       x="137.5904"
       y="70.838621"
       width="76.387601"
       height="64.626451"
       id="rect4163" />
    <rect
       x="137.59039"
       y="70.838623"
       width="76.387604"
       height="64.62645"
       id="rect4163-4" />
  </defs>
  <g
     inkscape:label="Vrstva 1"
     inkscape:groupmode="layer"
     id="layer1"
     style="display:inline">
    <path
       id="path9990-4"
       style="fill:none;stroke:#000000;stroke-width:0;stroke-linecap:round;stroke-linejoin:round;stroke-miterlimit:4;stroke-dasharray:none;stroke-opacity:1"
       d="m 151.8568,148.50001 a 46.856796,45.415051 0 0 1 -46.7515,45.41493 46.856796,45.415051 0 0 1 -46.961613,-45.21083 46.856796,45.415051 0 0 1 46.540443,-45.61812 46.856796,45.415051 0 0 1 47.17078,45.00581" />
    <g
       id="g27899"
       transform="matrix(0.99238528,0,0,1.0238894,-50.397505,-100.0166)">
      <path
         id="path9990"
         style="stroke:#000000;stroke-width:0;stroke-linecap:round;stroke-linejoin:round"
         d="m 151.8568,148.50001 a 46.856796,45.415051 0 0 1 -46.7515,45.41493 46.856796,45.415051 0 0 1 -46.961618,-45.21083 46.856796,45.415051 0 0 1 46.540448,-45.61812 46.856796,45.415051 0 0 1 47.17078,45.00581" />
      <path
         id="rect12985-5"
         style="display:inline;fill:#ececec;stroke:#000000;stroke-width:0;stroke-linecap:round;stroke-linejoin:round"
         d="m 100.89204,109.96415 h 8.34336 v 10 h -8.34336 z" />
      <path
         id="rect12985-5-9"
         style="display:inline;fill:#ececec;stroke:#000000;stroke-width:0;stroke-linecap:round;stroke-linejoin:round"
         d="m 102.16637,122.68855 h 5.66727 v 10 h -5.66727 z" />
      <path
         style="display:inline;fill:#ececec;stroke:#000000;stroke-width:0;stroke-linecap:round;stroke-linejoin:round"
         id="path13255"
         sodipodi:type="arc"
         sodipodi:cx="105"
         sodipodi:cy="148.5"
         sodipodi:rx="0.95575261"
         sodipodi:ry="1.0194695"
         sodipodi:start="0"
         sodipodi:end="6.2741969"
         sodipodi:open="true"
         sodipodi:arc-type="arc"
         d="m 105.95575,148.5 a 0.95575261,1.0194695 0 0 1 -0.9536,1.01947 0.95575261,1.0194695 0 0 1 -0.95789,-1.01489 0.95575261,1.0194695 0 0 1 0.9493,-1.02403 0.95575261,1.0194695 0 0 1 0.96215,1.01029" />
    </g>
    <path
       style="display:none;fill:#ececec;stroke:#000000;stroke-width:0;stroke-linecap:round;stroke-linejoin:round"
       id="path14133"
       sodipodi:type="arc"
       sodipodi:cx="105"
       sodipodi:cy="148.5"
       sodipodi:rx="18.541603"
       sodipodi:ry="18.541603"
       sodipodi:start="0"
       sodipodi:end="6.2741969"
       sodipodi:open="true"
       sodipodi:arc-type="arc"
       d="m 123.5416,148.5 a 18.541603,18.541603 0 0 1 -18.49994,18.54156 18.541603,18.541603 0 0 1 -18.583076,-18.45823 18.541603,18.541603 0 0 1 18.416426,-18.62451 18.541603,18.541603 0 0 1 18.66584,18.37452" />
    <g
       id="g27637"
       style="display:inline"
       transform="matrix(1.0493952,0,0,1.0493952,46.670287,-104.94382)">
      <text
         xml:space="preserve"
         style="font-style:normal;font-weight:normal;font-size:8.46667004px;line-height:1.25;font-family:sans-serif;fill:#000000;fill-opacity:1;stroke:none;stroke-width:0.26458299"
         id="text15459"
         transform="rotate(25.625792,105.46713,148.40417)"
         x="53.882786"
         y="-60.062958"><textPath
           xlink:href="#path14133"
           id="textPath19117"><tspan
   id="tspan15457"
   style="font-style:normal;font-variant:normal;font-weight:normal;font-stretch:normal;font-size:8.46667004px;font-family:Calibri;-inkscape-font-specification:Calibri;stroke-width:0.26458299">11001100110011001100110011001100110011001100</tspan></textPath></text>
      <text
         xml:space="preserve"
         style="font-style:normal;font-weight:normal;font-size:8.46667004px;line-height:1.25;font-family:sans-serif;display:inline;fill:#000000;fill-opacity:1;stroke:none;stroke-width:0.26458299"
         id="text15459-5"
         transform="matrix(1.486717,0.31971293,-0.31971293,1.486717,-3.6325016,-105.90924)"><textPath
           xlink:href="#path14133"
           id="textPath19117-0"><tspan
   id="tspan15457-4"
   style="font-style:normal;font-variant:normal;font-weight:normal;font-stretch:normal;font-size:8.46667004px;font-family:Calibri;-inkscape-font-specification:Calibri;stroke-width:0.26458299">11001100110011001100110011001100110011001100</tspan></textPath></text>
    </g>
    <path
       style="fill:#000000;fill-opacity:1;stroke:#000300;stroke-width:1.18986726;stroke-linecap:round;stroke-linejoin:round;stroke-miterlimit:4;stroke-dasharray:none;stroke-opacity:1"
       id="path28927"
       sodipodi:type="arc"
       sodipodi:cx="156.90291"
       sodipodi:cy="50.821598"
       sodipodi:rx="1.5129629"
       sodipodi:ry="1.5129629"
       sodipodi:start="0"
       sodipodi:end="6.2741969"
       sodipodi:open="true"
       sodipodi:arc-type="arc"
       d="m 158.41587,50.821598 a 1.5129629,1.5129629 0 0 1 -1.50956,1.512959 1.5129629,1.5129629 0 0 1 -1.51635,-1.506159 1.5129629,1.5129629 0 0 1 1.50275,-1.519729 1.5129629,1.5129629 0 0 1 1.5231,1.49933" />
    <path
       d="M 202.30095,50.821617 A 45.398022,44.934593 0 0 1 157.00494,95.756097 45.398022,44.934593 0 0 1 111.50536,51.023562 45.398022,44.934593 0 0 1 156.59688,5.888045 45.398022,44.934593 0 0 1 202.29911,50.417732"
       sodipodi:arc-type="arc"
       sodipodi:open="true"
       sodipodi:end="6.2741969"
       sodipodi:start="0"
       sodipodi:ry="44.934593"
       sodipodi:rx="45.398022"
       sodipodi:cy="50.821617"
       sodipodi:cx="156.90292"
       sodipodi:type="arc"
       id="path29063"
       style="fill:none;fill-opacity:1;stroke:#000300;stroke-width:1.13385999;stroke-linecap:round;stroke-linejoin:round;stroke-miterlimit:4;stroke-dasharray:none;stroke-opacity:1" />
    <text
       xml:space="preserve"
       transform="matrix(0.26458333,0,0,0.26458333,1.17142,-8.3801578)"
       id="text4161"
       style="font-style:normal;font-weight:normal;font-size:40px;line-height:1.25;font-family:sans-serif;white-space:pre;shape-inside:url(#rect4163);fill:#000000;fill-opacity:1;stroke:none"><tspan
         x="137.58984"
         y="107.3311"
         id="tspan16144"><tspan
           style="font-size:26.6667px;-inkscape-font-specification:'sans-serif, Normal';fill:#ffffff"
           id="tspan16142">D6</tspan></tspan></text>
    <text
       xml:space="preserve"
       transform="matrix(0.26458333,0,0,0.26458333,1.4638698,4.8889336)"
       id="text4161-4"
       style="font-style:normal;font-weight:normal;font-size:40px;line-height:1.25;font-family:sans-serif;white-space:pre;shape-inside:url(#rect4163-4);display:inline;fill:#000000;fill-opacity:1;stroke:none"><tspan
         x="137.58984"
         y="107.3311"
         id="tspan16148"><tspan
           style="font-size:26.6667px;-inkscape-font-specification:'sans-serif, Normal';fill:#ffffff"
           id="tspan16146">D7</tspan></tspan></text>
  </g>
</svg>
